<svg xmlns="http://www.w3.org/2000/svg" width="100" height="100" viewBox="0 0 100 100">
  <!-- Bitcoin Logo Circle -->
  <circle cx="50" cy="50" r="48" fill="#f7931a" stroke="none"/>
  
  <!-- Bitcoin B Symbol -->
  <g fill="#ffffff">
    <!-- Vertical stems of the B -->
    <rect x="47" y="20" width="3" height="60"/>
    <rect x="50" y="20" width="3" height="60"/>
    
    <!-- Top curve of B -->
    <path d="M 30,30 L 30,45 L 58,45 C 65,45 70,40 70,35 C 70,30 65,30 58,30 Z"/>
    
    <!-- Bottom curve of B -->
    <path d="M 30,45 L 30,70 L 62,70 C 70,70 75,65 75,57.5 C 75,50 70,45 62,45 Z"/>
    
    <!-- Horizontal lines -->
    <rect x="30" y="30" width="28" height="4"/>
    <rect x="30" y="41" width="32" height="8"/>
    <rect x="30" y="66" width="32" height="4"/>
    
    <!-- Dollar sign extensions -->
    <rect x="48.5" y="15" width="2" height="10"/>
    <rect x="48.5" y="75" width="2" height="10"/>
  </g>
</svg>