<svg xmlns="http://www.w3.org/2000/svg" xmlns:xlink="http://www.w3.org/1999/xlink" width="192" zoomAndPan="magnify" viewBox="0 0 144 143.999998" height="192" preserveAspectRatio="xMidYMid meet" version="1.0">
<defs>
<clipPath id="fa1f40cad6"><path d="M 4.261719 4.261719 L 140.597656 4.261719 L 140.597656 140.597656 L 4.261719 140.597656 Z M 4.261719 4.261719 " clip-rule="nonzero"/></clipPath>
<clipPath id="ec500648d5"><path d="M 72.429688 4.261719 C 34.78125 4.261719 4.261719 34.78125 4.261719 72.429688 C 4.261719 110.078125 34.78125 140.597656 72.429688 140.597656 C 110.078125 140.597656 140.597656 110.078125 140.597656 72.429688 C 140.597656 34.78125 110.078125 4.261719 72.429688 4.261719 Z M 72.429688 4.261719 " clip-rule="nonzero"/></clipPath>
<clipPath id="79780beb62"><path d="M 4.261719 4.261719 L 140.761719 4.261719 L 140.761719 140.761719 L 4.261719 140.761719 Z M 4.261719 4.261719 " clip-rule="nonzero"/></clipPath>
</defs>

<!-- REMOVED WHITE BACKGROUND RECTANGLES -->

<g clip-path="url(#79780beb62)">
<path stroke-linecap="butt" transform="matrix(0.195251, 0, 0, 0.195251, 0.45423, -18.699886)" fill-opacity="1" fill="#f7931a" fill-rule="evenodd" stroke-linejoin="miter" d="M 368.550503 118.060628 C 176.149863 118.060628 20.000648 274.249855 20.000648 466.650495 C 20.000648 659.051136 176.149863 815.20035 368.550503 815.20035 C 560.971149 815.20035 717.14037 659.051136 717.14037 466.650495 C 717.14037 274.249855 560.971149 118.060628 368.550503 118.060628 Z M 368.550503 145.209185 C 371.551449 145.209185 374.552395 145.269203 377.533334 145.349229 L 377.55334 145.469267 L 376.493006 145.369235 C 374.852489 158.653422 386.176058 170.73723 402.781292 173.438082 C 420.346828 176.298983 437.272162 167.356165 440.553197 153.491795 L 439.112743 153.271726 C 439.212774 153.171694 439.292799 153.051656 439.372825 152.931619 C 446.355025 154.472104 453.237194 156.232659 460.019332 158.213283 C 459.999326 158.353327 459.979319 158.513378 459.959313 158.653422 L 459.279099 158.39334 C 454.257516 170.797249 462.079981 185.441865 477.404811 192.34404 C 493.629925 199.646342 512.295808 195.384999 519.057939 182.841045 L 517.997605 182.3809 C 518.037618 182.280869 518.07763 182.200843 518.117643 182.120818 C 518.197668 181.940762 518.257687 181.740698 518.317706 181.560642 C 524.119535 184.561588 529.841338 187.722584 535.443104 191.063637 C 527.960745 201.726998 531.821962 217.47196 544.585985 227.895245 C 558.37033 239.158795 577.496358 239.899029 587.279441 229.535762 L 586.599227 228.975586 L 586.659246 228.895561 C 592.621125 234.277257 598.422953 239.879022 603.9647 245.680851 C 603.864668 245.760876 603.764637 245.840901 603.684612 245.940933 L 603.024404 245.160687 C 592.481081 253.383279 591.920904 269.928493 601.744 283.552787 C 612.147279 297.99734 630.433042 303.659124 642.556863 296.176766 L 641.896655 295.23647 L 641.956674 295.216463 C 642.176744 295.076419 642.336794 294.876356 642.496844 294.676293 C 646.378068 300.75821 650.079234 306.940158 653.560331 313.282157 C 641.81663 318.823904 637.315211 334.308784 643.157053 349.693633 C 649.359007 366.078798 665.163989 376.181982 678.688251 372.580847 C 680.568844 378.722783 682.309392 384.924737 683.829872 391.206717 C 670.925805 393.387405 662.463137 407.311793 664.123661 423.776983 C 665.884216 441.262494 678.58822 455.14687 692.61264 455.086851 C 692.752684 458.928061 692.832709 462.769272 692.832709 466.650495 C 692.832709 469.251315 692.812703 471.812122 692.752684 474.392936 C 679.66856 473.112532 667.844834 484.356076 665.183995 500.74124 C 662.363106 518.146726 671.085855 534.871997 684.710149 538.393107 C 683.269695 544.695093 681.589165 550.93706 679.768592 557.078996 C 667.464714 552.417527 653.100186 560.179974 646.278036 575.344753 C 639.05576 591.369804 643.137046 609.775605 655.30088 616.737799 C 652.259922 622.439596 649.078919 628.041362 645.71786 633.52309 C 635.034492 625.900687 619.189499 629.681879 608.706194 642.525927 C 597.622701 656.110209 596.742424 674.876123 606.625539 684.779244 C 601.043779 690.76113 595.241951 696.542952 589.220053 702.084699 C 580.89743 691.84147 564.552278 691.401332 551.068028 701.124396 C 537.063614 711.207574 531.321805 728.693085 537.783841 740.816906 C 532.48217 744.017915 527.080468 747.098886 521.59874 750.019807 C 516.257057 737.915992 500.5321 733.21451 484.927182 739.11637 C 468.602037 745.318325 458.498853 761.023275 461.959943 774.487518 C 455.838014 776.328098 449.616053 777.988622 443.334073 779.469088 C 440.973329 766.725072 427.168978 758.402449 410.843833 760.062972 C 393.63841 761.803521 379.934091 774.127405 379.533965 787.871737 C 375.892817 787.991775 372.231663 788.051794 368.550503 788.051794 C 364.729299 788.051794 360.908094 787.971768 357.126903 787.831724 C 356.286638 774.367481 342.742369 762.423716 325.837041 760.72318 C 309.81199 759.082663 296.227709 767.065179 293.486845 779.40907 C 288.185174 778.148672 282.923515 776.748231 277.721876 775.247758 C 282.003225 763.043912 274.240779 748.979479 259.276062 742.237354 C 243.251012 735.035084 224.84521 739.056351 217.86301 751.240191 C 211.280935 747.799107 204.818899 744.137953 198.496906 740.276736 L 198.496906 740.096679 L 199.377184 740.716875 C 207.439725 730.033508 203.678539 713.908425 190.654434 703.285077 C 183.332126 697.303192 174.509346 694.262233 166.366779 694.302246 C 159.184516 694.342258 152.542422 696.803034 147.960978 701.64456 L 148.741224 702.284762 L 148.741224 702.844938 C 143.219484 697.783343 137.8778 692.541691 132.716174 687.119982 L 132.996262 687.119982 L 132.996262 686.679843 L 133.616457 687.440083 C 144.179787 679.197485 144.719957 662.632264 134.896861 648.987964 C 127.414503 638.604691 115.870864 632.782856 105.467585 633.082951 C 101.386299 633.202989 97.505076 634.303336 94.083998 636.403998 L 94.964275 637.624382 L 93.96396 637.624382 C 90.162762 631.642497 86.561627 625.520567 83.160555 619.2786 C 94.844237 613.696841 99.32565 598.21196 93.503815 582.867124 C 87.321866 566.561985 71.656929 556.478807 58.192685 559.899885 C 56.312093 553.777956 54.59155 547.576001 53.091078 541.314028 C 65.8551 538.97329 74.217736 525.168939 72.557213 508.803781 C 70.816664 491.498327 58.33273 477.693976 44.46836 477.4539 C 44.348322 473.872772 44.268297 470.271637 44.268297 466.650495 C 44.268297 463.829606 44.308309 461.028723 44.368328 458.207834 C 57.272395 459.20815 68.856046 448.024625 71.496879 431.839524 C 74.277755 414.69412 65.835094 398.148905 52.530901 394.307695 C 53.991361 388.045721 55.651885 381.843766 57.472458 375.721837 C 69.636292 379.943167 83.660712 372.120702 90.362825 357.216004 C 97.465063 341.471042 93.683871 323.44536 82.000189 316.203078 C 85.921425 308.900776 90.102743 301.738519 94.564149 294.776325 C 105.22751 302.778847 121.312579 299.017661 131.935928 286.033569 C 142.85937 272.649351 143.859686 254.263556 134.456722 244.240397 C 138.618034 239.959048 142.919389 235.797736 147.30077 231.736456 C 155.583381 242.139735 172.04857 242.639892 185.612845 232.876815 C 199.737297 222.693606 205.4591 204.948013 198.716975 192.844198 C 204.198703 189.483139 209.760456 186.28213 215.462253 183.241171 C 215.482259 183.341203 215.522272 183.441234 215.562285 183.52126 C 215.622304 183.661304 215.702329 183.761335 215.80236 183.861367 L 214.942089 184.281499 C 220.143729 196.605383 236.028735 201.426903 251.753691 195.465024 C 268.398938 189.143031 278.582147 172.917918 274.500861 159.273617 L 273.560564 159.613725 C 273.560564 159.493687 273.540558 159.353643 273.520552 159.253611 C 280.542765 157.112936 287.66501 155.212337 294.86728 153.551814 C 294.927299 153.671852 294.967311 153.771883 295.02733 153.871915 L 293.146737 154.172009 C 295.007324 167.43619 309.071757 176.178946 325.817034 174.498416 C 343.522615 172.697848 357.567041 159.713756 357.146909 145.469267 L 356.086575 145.549292 C 356.106581 145.529285 356.126587 145.489273 356.146594 145.469267 C 360.267892 145.309216 364.409198 145.209185 368.550503 145.209185 Z M 686.470704 530.150509 L 686.510717 530.190522 C 686.470704 530.330566 686.430691 530.47061 686.410685 530.63066 Z M 686.470704 530.150509 " stroke="#000000" stroke-width="1" stroke-opacity="1" stroke-miterlimit="4"/>
</g>

<!-- All the Bitcoin design elements with orange fill -->
<path stroke-linecap="butt" transform="matrix(0.11593, 0, 0, 0.11593, 29.359178, 20.301488)" fill-opacity="1" fill="#f7931a" fill-rule="evenodd" stroke-linejoin="miter" d="M 394.298534 449.516553 C 394.298534 452.549087 393.725722 455.446842 392.546403 458.243512 C 391.400779 461.073878 389.749733 463.5336 387.593264 465.656374 C 385.436796 467.812843 382.977073 469.463889 380.180403 470.643208 C 377.383733 471.788832 374.452283 472.361644 371.419749 472.361644 C 368.387214 472.361644 365.48946 471.788832 362.692789 470.643208 C 359.896119 469.463889 357.402702 467.812843 355.279928 465.656374 C 353.123459 463.5336 351.472413 461.073878 350.326789 458.243512 C 349.14747 455.446842 348.574658 452.549087 348.574658 449.516553 C 348.574658 446.484019 349.14747 443.552569 350.326789 440.755899 C 351.472413 437.959228 353.123459 435.499506 355.279928 433.343037 C 357.402702 431.220263 359.896119 429.569217 362.692789 428.389898 C 365.48946 427.244274 368.387214 426.637767 371.419749 426.637767 C 374.452283 426.637767 377.383733 427.244274 380.180403 428.389898 C 382.977073 429.569217 385.436796 431.220263 387.593264 433.343037 C 389.749733 435.499506 391.400779 437.959228 392.546403 440.755899 C 393.725722 443.552569 394.298534 446.484019 394.298534 449.516553 Z M 394.298534 449.516553 " stroke="#000000" stroke-width="1.684" stroke-opacity="1" stroke-miterlimit="4"/>

<!-- Continue with all the Bitcoin design paths... -->
<path fill="#f7931a" d="M 107.152344 81.0625 C 102.382812 100.183594 83.015625 111.820312 63.890625 107.054688 C 44.777344 102.285156 33.136719 82.917969 37.90625 63.796875 C 42.671875 44.671875 62.039062 33.035156 81.160156 37.800781 C 100.28125 42.570312 111.917969 61.9375 107.152344 81.0625 Z M 107.152344 81.0625 " fill-opacity="1" fill-rule="nonzero"/>

<path fill="#ffffff" d="M 88.265625 67.34375 C 88.976562 62.59375 85.359375 60.039062 80.417969 58.335938 L 82.050781 51.671875 L 78.421875 50.734375 L 76.835938 57.226562 C 75.929688 56.988281 74.996094 56.765625 74.074219 56.546875 L 75.671875 50.007812 L 72.042969 49.070312 L 70.410156 55.734375 C 69.671875 55.5625 68.949219 55.394531 68.25 55.21875 L 68.253906 55.203125 L 63.359375 53.90625 L 62.367188 57.835938 C 62.367188 57.835938 65.0625 58.515625 65.007812 58.5625 C 66.507812 58.9375 66.789062 59.890625 66.742188 60.652344 L 64.90625 68.183594 C 65.019531 68.214844 65.164062 68.261719 65.328125 68.332031 C 65.195312 68.300781 65.054688 68.265625 64.90625 68.230469 L 62.367188 78.277344 C 62.179688 78.722656 61.734375 79.40625 60.671875 79.132812 C 60.71875 79.183594 58.039062 78.4375 58.039062 78.4375 L 56.164062 82.71875 L 60.796875 84.0625 C 61.625 84.320312 62.4375 84.585938 63.234375 84.839844 L 61.585938 91.5625 L 65.210938 92.5 L 66.84375 85.835938 C 67.789062 86.109375 68.707031 86.367188 69.605469 86.613281 L 67.976562 93.253906 L 71.605469 94.191406 L 73.253906 87.472656 C 79.847656 88.742188 84.90625 88.289062 87.09375 82.40625 C 88.875 77.65625 87.09375 75.007812 83.734375 73.335938 C 86.164062 72.742188 87.976562 71.09375 88.265625 67.34375 Z M 81.421875 79.609375 C 80.109375 84.859375 72.359375 82.335938 69.605469 81.617188 L 71.761719 72.953125 C 74.515625 73.675781 82.789062 74.125 81.421875 79.609375 Z M 82.734375 67.257812 C 81.5625 71.90625 75.09375 69.78125 72.84375 69.1875 L 74.761719 61.539062 C 77.011719 62.132812 84.0625 62.359375 82.734375 67.257812 Z M 82.734375 67.257812 " fill-opacity="1" fill-rule="nonzero"/>
</svg>