<svg xmlns="http://www.w3.org/2000/svg" width="100" height="100" viewBox="0 0 100 100">
  <!-- Bitcoin Orange Circle -->
  <circle cx="50" cy="50" r="48" fill="#f7931a"/>
  
  <!-- Bitcoin Symbol -->
  <g fill="#ffffff" stroke="none">
    <!-- Main vertical line -->
    <rect x="48.5" y="25" width="3" height="50"/>
    
    <!-- Top extension -->
    <rect x="48.5" y="18" width="3" height="12"/>
    
    <!-- Bottom extension -->
    <rect x="48.5" y="70" width="3" height="12"/>
    
    <!-- Letter B shape -->
    <!-- Top horizontal bar -->
    <rect x="35" y="32" width="25" height="3"/>
    
    <!-- Middle horizontal bar -->
    <rect x="35" y="47" width="28" height="3"/>
    
    <!-- Bottom horizontal bar -->
    <rect x="35" y="62" width="25" height="3"/>
    
    <!-- Left vertical bar -->
    <rect x="35" y="32" width="3" height="33"/>
    
    <!-- Top right curve -->
    <path d="M 60,32 Q 68,32 68,40 Q 68,47 60,47 L 35,47 L 35,32 Z" fill="#f7931a"/>
    <path d="M 58,35 Q 63,35 63,40 Q 63,44 58,44 L 38,44 L 38,35 Z"/>
    
    <!-- Bottom right curve -->
    <path d="M 63,50 Q 72,50 72,57 Q 72,62 63,62 L 35,62 L 35,50 Z" fill="#f7931a"/>
    <path d="M 60,53 Q 66,53 66,57 Q 66,59 60,59 L 38,59 L 38,53 Z"/>
  </g>
</svg>