<svg xmlns="http://www.w3.org/2000/svg" width="100" height="100" viewBox="0 0 100 100">
  <!-- Bitcoin Orange Circle -->
  <circle cx="50" cy="50" r="48" fill="#f7931a"/>
  
  <!-- Bitcoin Symbol in White -->
  <g fill="#ffffff">
    <!-- Main vertical line -->
    <rect x="48.5" y="20" width="3" height="60"/>
    
    <!-- Top and bottom extensions -->
    <rect x="48.5" y="15" width="3" height="10"/>
    <rect x="48.5" y="75" width="3" height="10"/>
    
    <!-- The B letter -->
    <!-- Left vertical -->
    <rect x="35" y="30" width="4" height="40"/>
    
    <!-- Horizontal bars -->
    <rect x="35" y="30" width="22" height="4"/>
    <rect x="35" y="48" width="25" height="4"/>
    <rect x="35" y="66" width="22" height="4"/>
    
    <!-- Top curve -->
    <path d="M 57,30 C 63,30 67,34 67,40 C 67,46 63,48 57,48 L 39,48 L 39,34 L 57,34 C 60,34 63,36 63,40 C 63,44 60,44 57,44 L 43,44 L 43,38 L 57,38 Z" fill="#ffffff"/>
    
    <!-- Bottom curve -->
    <path d="M 60,52 C 67,52 71,56 71,61 C 71,66 67,66 60,66 L 39,66 L 39,52 L 60,52 C 64,52 67,54 67,58 C 67,62 64,62 60,62 L 43,62 L 43,56 L 60,56 Z" fill="#ffffff"/>
  </g>
</svg>