<svg xmlns="http://www.w3.org/2000/svg" width="100" height="100" viewBox="0 0 100 100">
  <!-- Orange Circle Background -->
  <circle cx="50" cy="50" r="48" fill="#f7931a"/>
  
  <!-- White Bitcoin Symbol -->
  <g fill="#ffffff">
    <!-- Vertical line -->
    <rect x="48.5" y="18" width="3" height="64"/>
    
    <!-- Bitcoin B -->
    <path d="M 32,32 L 32,68 L 58,68 C 66,68 72,62 72,56 C 72,52 70,48.5 67,47 C 69,45.5 70,42 70,38 C 70,32 65,32 58,32 Z M 38,38 L 55,38 C 60,38 64,40 64,44 C 64,48 60,50 55,50 L 38,50 Z M 38,56 L 58,56 C 63,56 66,58 66,62 C 66,66 63,68 58,68 L 38,68 Z"/>
    
    <!-- Clean B shape alternative -->
    <rect x="32" y="32" width="6" height="36" fill="#ffffff"/>
    <rect x="32" y="32" width="26" height="6" fill="#ffffff"/>
    <rect x="32" y="47" width="30" height="6" fill="#ffffff"/>
    <rect x="32" y="62" width="26" height="6" fill="#ffffff"/>
    
    <!-- Right curves -->
    <ellipse cx="58" cy="41" rx="8" ry="9" fill="#ffffff"/>
    <ellipse cx="58" cy="41" rx="2" ry="3" fill="#f7931a"/>
    
    <ellipse cx="62" cy="59" rx="10" ry="9" fill="#ffffff"/>
    <ellipse cx="62" cy="59" rx="4" ry="3" fill="#f7931a"/>
  </g>
</svg>